# xmcd
#
# Track frame offsets: 
#        150
#        19513
#        44716
#        74253
#        91218
#        111726
#        127451
#        147271
#        167081
#        188441
#        217276
#        232976
#        251121
#        276896
#        294908
#        308149
#
# Disc length: 4347 seconds
#
# Revision: 0
# Processed by: cddbd v1.5.2PL0 Copyright (c) Steve Scherf et al.
# Submitted via: ExactAudioCopy v0.99pb5
#
DISCID=fa10f910
DTITLE=Various Artist - Billboard 1991
DYEAR=2000
DGENRE=Other
TTITLE0=Spin Doctors - Two Princes
TTITLE1=Guns N' Roses - Knockin' on Heaven's Door
TTITLE2=Bryan Adams - (Everything I Do) I Do It for You
TTITLE3=R.E.M. - Shiny Happy People
TTITLE4=Eric Clapton - Tears in Heaven
TTITLE5=EMF - Unbelievable
TTITLE6=Red Hot Chili Peppers - Under the Bridge
TTITLE7=Roxette - Joyride
TTITLE8=Guns N' Roses - Don't Cry
TTITLE9=Michael Jackson - Heal the World
TTITLE10=Salt-n-Pepa - Let's Talk About Sex
TTITLE11=Tom Petty and the Heartbreakers - Learning to Fly
TTITLE12=Pearl Jam - Black
TTITLE13=Mariah Carey - Emotions
TTITLE14=Right Said Fred - I'm Too Sexy
TTITLE15=Europe - I'll Cry for You
EXTD=
EXTT0=
EXTT1=
EXTT2=
EXTT3=
EXTT4=
EXTT5=
EXTT6=
EXTT7=
EXTT8=
EXTT9=
EXTT10=
EXTT11=
EXTT12=
EXTT13=
EXTT14=
EXTT15=
PLAYORDER=
